<svg xmlns="http://www.w3.org/2000/svg" width="32" height="32"><path d="M14.5 0a3 3 0 0 0-3 3 3 3 0 0 0 3 3 3 3 0 0 0 3-3 3 3 0 0 0-3-3zm-7 .016a1.5 1.5 0 0 0-1.5 1.5V6.5C6 8.43 8.111 10 10.041 10H10v10.36l-3.537 3.39A1.502 1.502 0 0 0 6 24.834V30.5a1.5 1.5 0 0 0 3 0v-5.027l2.662-2.705c.101.016.453.037.559.03l3.504-.198 1.328 3.824a1.5 1.5 0 0 0 .502.771l5.5 4.47a1.501 1.501 0 0 0 1.89-2.328L19.57 25.17 18 20.3v-1.703s.288-.224.305-.24l4.648-4.32c.586-.587.649-1.536.063-2.122L18.57 7.439a1.41 1.41 0 0 0-.64-.36.837.837 0 0 0-.352-.079h-7.537C9.765 7 9 6.775 9 6.5V1.516a1.5 1.5 0 0 0-1.5-1.5zM18 11.58l1.396 1.397L18 14.373V11.58z"/></svg>